<svg width="176" height="169" viewBox="0 0 176 169" fill="none" xmlns="http://www.w3.org/2000/svg">
<path d="M88 168.297C136.152 168.297 175.188 130.78 175.188 84.5C175.188 38.2203 136.152 0.703125 88 0.703125C39.8477 0.703125 0.8125 38.2203 0.8125 84.5C0.8125 130.78 39.8477 168.297 88 168.297Z" fill="#F0DCCE"/>
<path d="M157.967 134.44C149.835 123.977 139.276 115.481 127.13 109.628C114.983 103.774 101.584 100.724 87.9957 100.719C74.4078 100.715 61.006 103.757 48.8556 109.603C36.7051 115.45 26.1409 123.939 18.0024 134.397C26.0993 144.908 36.6461 153.45 48.7972 159.337C60.9483 165.224 74.3655 168.292 87.9731 168.297C101.581 168.301 115 165.24 127.155 159.361C139.31 153.482 149.863 144.946 157.967 134.44Z" fill="#D78354"/>
<path d="M88 89.9062C106.64 89.9062 121.75 75.3835 121.75 57.4688C121.75 39.554 106.64 25.0312 88 25.0312C69.3604 25.0312 54.25 39.554 54.25 57.4688C54.25 75.3835 69.3604 89.9062 88 89.9062Z" fill="#D78354"/>
</svg>
