<svg width="59" height="56" viewBox="0 0 59 56" fill="none" xmlns="http://www.w3.org/2000/svg">
<rect width="59" height="56" rx="5" fill="#D7D7D7"/>
<path d="M30.6239 11.0625C37.4886 11.0971 43.081 16.5555 43.0238 23.2387C42.9683 29.7129 31.4951 42.9523 31.0818 43.5072C30.9165 43.7152 30.6708 43.7836 30.4256 43.7824C30.3047 43.7817 30.1841 43.7473 30.0735 43.6957C29.8572 43.5949 29.6985 43.413 29.5459 43.2296C27.8682 41.2138 18.1284 29.1618 18.1802 23.1134C18.0739 16.4295 23.7593 11.0279 30.6239 11.0625ZM30.4726 28.7449C34.477 28.7651 37.7697 25.9969 37.7989 22.5857C37.8281 19.1746 34.583 16.3735 30.5786 16.3533C26.5743 16.3331 23.2815 19.1013 23.2523 22.5124C23.2231 25.9236 26.4682 28.7247 30.4726 28.7449Z" fill="white"/>
</svg>
