<svg width="174" height="52" viewBox="0 0 174 52" fill="none" xmlns="http://www.w3.org/2000/svg">
<path d="M49.0427 35.425C46.4172 35.425 44.415 34.6222 43.0361 33.0167C41.6572 31.4111 40.9677 29.2389 40.9677 26.5C40.9677 23.61 41.695 21.4 43.1494 19.87C44.6227 18.34 46.6061 17.575 49.0994 17.575C51.3472 17.575 53.1133 18.17 54.3977 19.36C55.6822 20.55 56.4472 22.1744 56.6927 24.2333H52.1594C52.0272 23.1189 51.6966 22.2689 51.1677 21.6833C50.6388 21.0978 49.9588 20.805 49.1277 20.805C48.0322 20.805 47.1916 21.2961 46.6061 22.2783C46.0205 23.2606 45.7277 24.6678 45.7277 26.5C45.7277 28.3322 46.0111 29.7394 46.5777 30.7217C47.1633 31.7039 48.0038 32.195 49.0994 32.195C49.9494 32.195 50.6388 31.9022 51.1677 31.3167C51.6966 30.7122 52.0272 29.8622 52.1594 28.7667H56.6927C56.4283 30.7878 55.6444 32.4028 54.3411 33.6117C53.0566 34.8206 51.2905 35.425 49.0427 35.425ZM58.6455 35V12.3333H63.2355V20.04H63.9155C64.2933 19.3222 64.8127 18.7367 65.4738 18.2833C66.1538 17.8111 67.0888 17.575 68.2788 17.575C70.1677 17.575 71.5844 18.17 72.5288 19.36C73.4733 20.55 73.9455 22.165 73.9455 24.205V35H69.3555V24.97C69.3555 23.7989 69.1477 22.9017 68.7322 22.2783C68.3166 21.6361 67.6366 21.315 66.6922 21.315C65.5966 21.315 64.7466 21.7494 64.1422 22.6183C63.5377 23.4683 63.2355 24.5356 63.2355 25.82V35H58.6455ZM83.995 35.425C81.3128 35.425 79.2633 34.6222 77.8467 33.0167C76.4489 31.4111 75.75 29.2294 75.75 26.4717C75.75 24.6206 76.0617 23.0339 76.685 21.7117C77.3272 20.3894 78.2528 19.3694 79.4617 18.6517C80.6894 17.9339 82.1817 17.575 83.9383 17.575C86.4694 17.575 88.4055 18.34 89.7467 19.87C91.1067 21.4 91.7867 23.6478 91.7867 26.6133V27.5767H80.2267C80.3211 29.0122 80.6894 30.1456 81.3317 30.9767C81.9928 31.7889 82.8805 32.195 83.995 32.195C84.8828 32.195 85.5911 31.9306 86.12 31.4017C86.6678 30.8728 87.0267 30.2589 87.1967 29.56H91.56C91.39 30.5989 91.0122 31.5622 90.4267 32.45C89.8411 33.3378 89.0194 34.0556 87.9617 34.6033C86.9039 35.1511 85.5817 35.425 83.995 35.425ZM80.2267 24.6867H87.31C87.2344 23.4022 86.9133 22.4106 86.3467 21.7117C85.78 20.9939 84.9678 20.635 83.91 20.635C82.8711 20.635 82.0305 20.975 81.3883 21.655C80.765 22.3161 80.3778 23.3267 80.2267 24.6867ZM100.668 35.425C98.0427 35.425 96.0405 34.6222 94.6616 33.0167C93.2827 31.4111 92.5933 29.2389 92.5933 26.5C92.5933 23.61 93.3205 21.4 94.7749 19.87C96.2483 18.34 98.2316 17.575 100.725 17.575C102.973 17.575 104.739 18.17 106.023 19.36C107.308 20.55 108.073 22.1744 108.318 24.2333H103.785C103.653 23.1189 103.322 22.2689 102.793 21.6833C102.264 21.0978 101.584 20.805 100.753 20.805C99.6577 20.805 98.8172 21.2961 98.2316 22.2783C97.6461 23.2606 97.3533 24.6678 97.3533 26.5C97.3533 28.3322 97.6366 29.7394 98.2033 30.7217C98.7888 31.7039 99.6294 32.195 100.725 32.195C101.575 32.195 102.264 31.9022 102.793 31.3167C103.322 30.7122 103.653 29.8622 103.785 28.7667H108.318C108.054 30.7878 107.27 32.4028 105.967 33.6117C104.682 34.8206 102.916 35.425 100.668 35.425ZM110.271 35V12.3333H114.861V24.5167H116.221L120.981 18H125.854V18.17L120.046 25.9333L126.534 34.83V35H121.179L116.221 27.9167H114.861V35H110.271Z" fill="white"/>
<path d="M127.944 35V18H132.534V35H127.944ZM130.239 16.045C129.427 16.045 128.813 15.8372 128.398 15.4217C127.982 14.9872 127.774 14.43 127.774 13.75C127.774 13.07 127.982 12.5222 128.398 12.1067C128.813 11.6722 129.427 11.455 130.239 11.455C131.052 11.455 131.666 11.6722 132.081 12.1067C132.497 12.5222 132.704 13.07 132.704 13.75C132.704 14.43 132.497 14.9872 132.081 15.4217C131.666 15.8372 131.052 16.045 130.239 16.045ZM135.723 35V18H139.973V20.55H140.653C140.993 19.7 141.513 18.9917 142.212 18.425C142.929 17.8583 143.978 17.575 145.357 17.575C147.245 17.575 148.662 18.17 149.607 19.36C150.551 20.55 151.023 22.165 151.023 24.205V35H146.433V24.97C146.433 23.7989 146.225 22.9017 145.81 22.2783C145.394 21.6361 144.714 21.315 143.77 21.315C142.674 21.315 141.824 21.7494 141.22 22.6183C140.615 23.4683 140.313 24.5356 140.313 25.82V35H135.723ZM160.308 35.425C158.419 35.425 156.908 35.1322 155.774 34.5467C154.66 33.9422 153.838 33.1867 153.309 32.28C152.799 31.3733 152.507 30.4667 152.431 29.56H156.794C156.889 30.0511 157.087 30.5044 157.389 30.92C157.711 31.3167 158.126 31.6283 158.636 31.855C159.165 32.0817 159.798 32.195 160.534 32.195C161.441 32.195 162.093 32.0439 162.489 31.7417C162.886 31.4206 163.084 31.0144 163.084 30.5233C163.084 30.07 162.896 29.6922 162.518 29.39C162.159 29.0689 161.564 28.7761 160.733 28.5117L158.693 27.8317C157.711 27.4917 156.804 27.1233 155.973 26.7267C155.142 26.3111 154.471 25.7822 153.961 25.14C153.47 24.4978 153.224 23.6667 153.224 22.6467C153.224 21.1356 153.801 19.9172 154.953 18.9917C156.105 18.0472 157.739 17.575 159.854 17.575C161.384 17.575 162.631 17.8111 163.594 18.2833C164.577 18.7556 165.313 19.3883 165.804 20.1817C166.296 20.9561 166.579 21.8156 166.654 22.76H162.461C162.367 22.08 162.083 21.5606 161.611 21.2017C161.139 20.8239 160.497 20.635 159.684 20.635C158.948 20.635 158.391 20.7767 158.013 21.06C157.654 21.3433 157.474 21.7306 157.474 22.2217C157.474 22.7128 157.673 23.1189 158.069 23.44C158.466 23.7611 159.071 24.0539 159.883 24.3183L161.923 24.97C162.905 25.2722 163.802 25.6311 164.614 26.0467C165.446 26.4433 166.107 26.9722 166.598 27.6333C167.089 28.2756 167.334 29.1161 167.334 30.155C167.334 31.7417 166.73 33.0167 165.521 33.98C164.331 34.9433 162.593 35.425 160.308 35.425Z" fill="#D5D5D5"/>
<path d="M96.8226 48L94.6993 41.07V41H95.9593L97.7209 46.95H98.0009L99.7626 41H100.929V41.07L98.8059 48H96.8226ZM102.137 48V41H103.397V48H102.137ZM102.767 40.02C102.526 40.02 102.335 39.95 102.195 39.81C102.063 39.67 101.997 39.4833 101.997 39.25C101.997 39.0167 102.063 38.83 102.195 38.69C102.335 38.55 102.526 38.48 102.767 38.48C103.016 38.48 103.207 38.55 103.339 38.69C103.471 38.83 103.537 39.0167 103.537 39.25C103.537 39.4833 103.471 39.67 103.339 39.81C103.207 39.95 103.016 40.02 102.767 40.02ZM107.75 48.175C107.151 48.175 106.641 48.0233 106.221 47.72C105.801 47.4167 105.479 46.9928 105.253 46.4483C105.035 45.8961 104.926 45.2467 104.926 44.5C104.926 43.7533 105.035 43.1078 105.253 42.5633C105.479 42.0111 105.801 41.5833 106.221 41.28C106.649 40.9767 107.166 40.825 107.773 40.825C108.302 40.825 108.722 40.9378 109.033 41.1633C109.352 41.3811 109.574 41.63 109.698 41.91H109.978V41H111.098V48H109.978V47.09H109.698C109.574 47.37 109.352 47.6228 109.033 47.8483C108.714 48.0661 108.286 48.175 107.75 48.175ZM107.971 47.125C108.555 47.125 109.017 46.8839 109.36 46.4017C109.702 45.9194 109.873 45.2856 109.873 44.5C109.873 43.7144 109.702 43.0806 109.36 42.5983C109.017 42.1161 108.555 41.875 107.971 41.875C107.404 41.875 106.968 42.1044 106.665 42.5633C106.361 43.0222 106.21 43.6678 106.21 44.5C106.21 45.3322 106.361 45.9778 106.665 46.4367C106.968 46.8956 107.404 47.125 107.971 47.125ZM112.402 50.3333V50.2633C112.596 50.0378 112.76 49.7578 112.892 49.4233C113.032 49.0889 113.102 48.6417 113.102 48.0817V41H114.362V48.245C114.362 48.8361 114.296 49.2794 114.164 49.575C114.031 49.8706 113.884 50.1233 113.72 50.3333H112.402ZM113.732 40.02C113.491 40.02 113.3 39.95 113.16 39.81C113.028 39.67 112.962 39.4833 112.962 39.25C112.962 39.0167 113.028 38.83 113.16 38.69C113.3 38.55 113.491 38.48 113.732 38.48C113.981 38.48 114.171 38.55 114.304 38.69C114.436 38.83 114.502 39.0167 114.502 39.25C114.502 39.4833 114.436 39.67 114.304 39.81C114.171 39.95 113.981 40.02 113.732 40.02ZM119.03 48.175C118.003 48.175 117.221 47.8406 116.685 47.1717C116.156 46.495 115.891 45.6044 115.891 44.5C115.891 43.7689 116.008 43.1311 116.241 42.5867C116.482 42.0344 116.832 41.6028 117.291 41.2917C117.758 40.9806 118.333 40.825 119.018 40.825C119.975 40.825 120.702 41.1361 121.2 41.7583C121.705 42.3806 121.958 43.2828 121.958 44.465V44.8267H117.116C117.155 45.5111 117.33 46.075 117.641 46.5183C117.96 46.9539 118.427 47.1717 119.041 47.1717C119.485 47.1717 119.842 47.0472 120.115 46.7983C120.387 46.5494 120.581 46.2033 120.698 45.76H121.888C121.787 46.2344 121.62 46.6544 121.386 47.02C121.153 47.3778 120.842 47.6617 120.453 47.8717C120.064 48.0739 119.59 48.175 119.03 48.175ZM117.128 43.9167H120.733C120.71 43.24 120.546 42.7228 120.243 42.365C119.94 42.0072 119.527 41.8283 119.006 41.8283C118.454 41.8283 118.018 42.0111 117.7 42.3767C117.388 42.7422 117.198 43.2556 117.128 43.9167ZM124.368 48C124.196 47.79 124.056 47.5372 123.948 47.2417C123.846 46.9461 123.796 46.5028 123.796 45.9117V41.98H122.839V41H123.819V39.25H125.033V41H126.223V41.98H125.056V45.7133C125.056 46.3511 125.122 46.8294 125.254 47.1483C125.394 47.4594 125.561 47.72 125.756 47.93V48H124.368ZM127.58 48V41H128.84V48H127.58ZM128.21 40.02C127.969 40.02 127.779 39.95 127.639 39.81C127.507 39.67 127.44 39.4833 127.44 39.25C127.44 39.0167 127.507 38.83 127.639 38.69C127.779 38.55 127.969 38.48 128.21 38.48C128.459 38.48 128.65 38.55 128.782 38.69C128.914 38.83 128.98 39.0167 128.98 39.25C128.98 39.4833 128.914 39.67 128.782 39.81C128.65 39.95 128.459 40.02 128.21 40.02ZM130.848 50.3333V41H131.968V41.91H132.248C132.373 41.63 132.594 41.3811 132.913 41.1633C133.232 40.9378 133.66 40.825 134.196 40.825C134.795 40.825 135.305 40.9767 135.725 41.28C136.145 41.5756 136.464 41.9994 136.681 42.5517C136.907 43.1039 137.02 43.7533 137.02 44.5C137.02 45.2389 136.907 45.8844 136.681 46.4367C136.464 46.9889 136.145 47.4167 135.725 47.72C135.313 48.0233 134.811 48.175 134.22 48.175C133.745 48.175 133.36 48.0817 133.065 47.895C132.769 47.7083 132.544 47.4633 132.388 47.16H132.108V50.3333H130.848ZM133.975 47.125C134.543 47.125 134.978 46.8956 135.281 46.4367C135.585 45.9778 135.736 45.3322 135.736 44.5C135.736 43.6678 135.585 43.0222 135.281 42.5633C134.978 42.1044 134.543 41.875 133.975 41.875C133.391 41.875 132.929 42.1161 132.586 42.5983C132.244 43.0806 132.073 43.7144 132.073 44.5C132.073 45.2856 132.244 45.9194 132.586 46.4017C132.929 46.8839 133.391 47.125 133.975 47.125ZM138.942 48.07C138.678 48.07 138.471 48 138.324 47.86C138.176 47.7122 138.102 47.51 138.102 47.2533C138.102 46.9967 138.176 46.7983 138.324 46.6583C138.471 46.5106 138.678 46.4367 138.942 46.4367C139.214 46.4367 139.42 46.5106 139.56 46.6583C139.708 46.7983 139.782 46.9967 139.782 47.2533C139.782 47.51 139.708 47.7122 139.56 47.86C139.42 48 139.214 48.07 138.942 48.07ZM143.915 48.175C142.904 48.175 142.141 47.8406 141.628 47.1717C141.123 46.495 140.87 45.6044 140.87 44.5C140.87 43.38 141.126 42.4894 141.64 41.8283C142.161 41.1594 142.919 40.825 143.915 40.825C144.731 40.825 145.389 41.0544 145.886 41.5133C146.392 41.9644 146.699 42.61 146.808 43.45H145.583C145.513 42.9522 145.342 42.5633 145.07 42.2833C144.798 41.9956 144.424 41.8517 143.95 41.8517C143.335 41.8517 142.88 42.0889 142.585 42.5633C142.297 43.0378 142.153 43.6833 142.153 44.5C142.153 45.3167 142.297 45.9622 142.585 46.4367C142.88 46.9111 143.335 47.1483 143.95 47.1483C144.424 47.1483 144.798 47.0083 145.07 46.7283C145.342 46.4406 145.513 46.0478 145.583 45.55H146.808C146.684 46.3978 146.373 47.0472 145.875 47.4983C145.377 47.9494 144.724 48.175 143.915 48.175ZM150.897 48.175C149.831 48.175 149.038 47.8444 148.517 47.1833C148.003 46.5144 147.747 45.62 147.747 44.5C147.747 43.38 148.003 42.4894 148.517 41.8283C149.038 41.1594 149.831 40.825 150.897 40.825C151.962 40.825 152.752 41.1594 153.265 41.8283C153.786 42.4894 154.047 43.38 154.047 44.5C154.047 45.62 153.786 46.5144 153.265 47.1833C152.752 47.8444 151.962 48.175 150.897 48.175ZM150.897 47.1483C151.542 47.1483 152.013 46.9111 152.308 46.4367C152.612 45.9622 152.763 45.3167 152.763 44.5C152.763 43.6833 152.612 43.0378 152.308 42.5633C152.013 42.0889 151.542 41.8517 150.897 41.8517C150.251 41.8517 149.777 42.0889 149.473 42.5633C149.178 43.0378 149.03 43.6833 149.03 44.5C149.03 45.3167 149.178 45.9622 149.473 46.4367C149.777 46.9111 150.251 47.1483 150.897 47.1483ZM155.58 48V41H156.7V42.0617H156.98C157.089 41.665 157.295 41.3617 157.599 41.1517C157.91 40.9339 158.303 40.825 158.777 40.825C159.283 40.825 159.695 40.9378 160.014 41.1633C160.333 41.3811 160.566 41.6806 160.714 42.0617H160.994C161.126 41.665 161.352 41.3617 161.67 41.1517C161.997 40.9339 162.409 40.825 162.907 40.825C163.677 40.825 164.233 41.0778 164.575 41.5833C164.925 42.0811 165.1 42.7228 165.1 43.5083V48H163.84V43.7767C163.84 43.17 163.743 42.7072 163.549 42.3883C163.354 42.0617 163.043 41.8983 162.615 41.8983C162.094 41.8983 161.69 42.1239 161.402 42.575C161.114 43.0183 160.97 43.5706 160.97 44.2317V48H159.71V43.7767C159.71 43.17 159.613 42.7072 159.419 42.3883C159.224 42.0617 158.913 41.8983 158.485 41.8983C157.964 41.8983 157.56 42.1239 157.272 42.575C156.984 43.0183 156.84 43.5706 156.84 44.2317V48H155.58Z" fill="white"/>
<path d="M14.7387 6.94048C22.9354 5.87512 30.5805 12.0174 31.7031 20.6543C32.7906 29.0213 21.4603 47.9679 21.066 48.7511C20.9059 49.0464 20.6249 49.1744 20.3321 49.2124C20.0394 49.2505 19.7233 49.1086 19.5047 48.954C18.8257 48.3104 3.12614 32.8769 2.03866 24.5099C0.720934 15.8984 6.5419 8.00584 14.7387 6.94048ZM17.7088 29.7922C22.4902 29.1707 25.9257 25.0647 25.3527 20.6563C24.7797 16.2479 20.4088 13.1565 15.6273 13.778C10.8459 14.3995 7.41043 18.5055 7.9834 22.9139C8.55638 27.3223 12.9273 30.4136 17.7088 29.7922Z" fill="#54A8D7"/>
</svg>
