<svg width="50" height="50" viewBox="0 0 50 50" fill="none" xmlns="http://www.w3.org/2000/svg">
<circle cx="25" cy="25" r="25" fill="#D1D1D1"/>
<g clip-path="url(#clip0_413_62)">
<path d="M36.7184 22.0661V19.3864H38V15.9555L25.5 10.0024L13 15.9555V19.3864H14.2816V22.0661H15.8545V30.8531H13V34.9977H38V30.8531H35.1455V22.0661H36.7184ZM14.4648 16.8804L25.5 11.625L36.5352 16.8804V17.9215H14.4648V16.8804ZM36.5352 32.3179V33.5328H14.4648V32.3179H36.5352ZM17.3193 30.8531V22.0661H18.9993V30.8531H17.3193ZM20.4641 30.8531V22.0661H23.1952V30.8531H20.4641ZM24.66 30.8531V22.0661H26.3399V30.8531H24.66ZM27.8048 30.8531V22.0661H30.5359V30.8531H27.8048ZM32.0007 30.8531V22.0661H33.6807V30.8531H32.0007ZM15.7465 20.6013V19.3864H35.2536V20.6013H15.7465Z" fill="white"/>
</g>
<defs>
<clipPath id="clip0_413_62">
<rect width="25" height="25" fill="white" transform="translate(13 10)"/>
</clipPath>
</defs>
</svg>
